<?xml version="1.0" standalone="no"?>
<!DOCTYPE svg PUBLIC "-//W3C//DTD SVG 20010904//EN"
 "http://www.w3.org/TR/2001/REC-SVG-20010904/DTD/svg10.dtd">
<svg version="1.0" xmlns="http://www.w3.org/2000/svg"
 width="901.000000pt" height="901.000000pt" viewBox="0 0 901.000000 901.000000"
 preserveAspectRatio="xMidYMid meet">
<metadata>
Created by potrace 1.11, written by Peter Selinger 2001-2013
</metadata>
<g transform="translate(0.000000,901.000000) scale(0.100000,-0.100000)"
fill="#000000" stroke="none">
<path d="M3602 7854 c-492 -409 -897 -744 -900 -744 -4 0 -7 132 -7 292 l0
293 -372 3 -373 2 0 -608 0 -609 -515 -428 c-283 -236 -515 -434 -515 -441 0
-14 327 -354 370 -384 l27 -19 279 232 c154 128 516 428 804 668 1656 1375
2095 1739 2100 1739 3 0 226 -183 496 -407 270 -225 661 -550 870 -723 208
-173 563 -468 789 -655 225 -187 549 -456 719 -597 l309 -257 37 29 c56 44
360 360 360 373 0 15 40 -19 -775 657 -374 310 -840 697 -1035 859 -195 162
-418 347 -495 411 -77 64 -395 329 -708 588 -312 260 -568 472 -570 471 -1 0
-404 -336 -895 -745z"/>
<path d="M7631 3447 c-77 -134 -216 -280 -386 -406 -136 -101 -315 -202 -730
-410 -518 -260 -658 -347 -828 -518 -135 -135 -229 -301 -268 -478 -18 -77
-16 -365 3 -455 l13 -65 24 70 c49 147 117 252 240 376 97 96 230 198 371 283
52 32 94 62 92 68 -1 5 2 7 7 4 5 -4 76 29 158 73 81 43 244 128 360 190 382
199 558 315 714 471 195 194 280 390 278 645 0 66 -4 140 -7 165 l-7 45 -34
-58z"/>
<path d="M1326 3438 c-3 -29 -6 -100 -6 -158 0 -240 89 -441 279 -630 153
-152 333 -273 691 -460 615 -323 689 -366 863 -498 185 -141 322 -317 378
-484 15 -44 29 -81 32 -84 12 -13 32 176 32 306 -1 163 -12 224 -61 354 -86
224 -274 418 -581 603 -59 35 -278 149 -486 253 -393 197 -557 289 -690 384
-43 31 -83 53 -89 50 -6 -4 -8 -3 -5 3 3 5 -36 48 -87 96 -92 85 -180 191
-227 274 -13 24 -27 43 -30 43 -3 0 -9 -24 -13 -52z"/>
</g>
</svg>
